<svg xmlns="http://www.w3.org/2000/svg" viewBox="0 0 512 512">
    <g fill="#dbe5eb" stroke="#111" stroke-width="2">
        <ellipse cx="256" cy="98" rx="28" ry="83"/>
        <ellipse cx="256" cy="98" rx="28" ry="83" transform="rotate(30 256 256)"/>
        <ellipse cx="256" cy="98" rx="28" ry="83" transform="rotate(60 256 256)"/>
        <ellipse cx="256" cy="98" rx="28" ry="83" transform="rotate(90 256 256)"/>
        <ellipse cx="256" cy="98" rx="28" ry="83" transform="rotate(120 256 256)"/>
        <ellipse cx="256" cy="98" rx="28" ry="83" transform="rotate(150 256 256)"/>
        <ellipse cx="256" cy="98" rx="28" ry="83" transform="rotate(180 256 256)"/>
        <ellipse cx="256" cy="98" rx="28" ry="83" transform="rotate(210 256 256)"/>
        <ellipse cx="256" cy="98" rx="28" ry="83" transform="rotate(240 256 256)"/>
        <ellipse cx="256" cy="98" rx="28" ry="83" transform="rotate(270 256 256)"/>
        <ellipse cx="256" cy="98" rx="28" ry="83" transform="rotate(300 256 256)"/>
        <ellipse cx="256" cy="98" rx="28" ry="83" transform="rotate(330 256 256)"/>
    </g>
    <circle cx="256" cy="256" r="76" fill="#ffad18" stroke="#f47b11" stroke-width="8"/>
    <circle cx="256" cy="256" r="58" fill="#ff9918"/>
    <circle cx="232" cy="226" r="9" fill="#ffb625" opacity=".9"/>
</svg>